<svg id="Group_107" data-name="Group 107" xmlns="http://www.w3.org/2000/svg" width="137" height="88" viewBox="0 0 137 88">
  <rect id="Rectangle_192" data-name="Rectangle 192" width="137" height="88" fill="#fff" opacity="0.6"/>
  <g id="Group_1" data-name="Group 1" transform="translate(-223.906 -296.068)">
    <path id="Path_1" data-name="Path 1" d="M509.566,336.956h-.032a.348.348,0,0,1-.316-.378h0c0-.018,0-.037,0-.055.218-2.453-.029-3.922-.8-4.761-.727-.8-2.034-1.152-4.232-1.156h-.06a.349.349,0,0,1-.348-.349.36.36,0,0,1,.378-.349h.034c4.532,0,5.761-1.191,6.195-5.974,0-.02,0-.041.006-.061a.344.344,0,0,1,.379-.316.348.348,0,0,1,.315.378c0,.019,0,.038,0,.058-.217,2.451.029,3.921.8,4.76.727.8,2.033,1.152,4.232,1.156h.061a.349.349,0,0,1,.348.349.363.363,0,0,1-.379.349h-.035c-4.532,0-5.76,1.191-6.195,5.974,0,.02,0,.041-.006.061A.348.348,0,0,1,509.566,336.956Zm-2.274-6.677a3.669,3.669,0,0,1,1.65,1.01,3.874,3.874,0,0,1,.908,1.93,4.27,4.27,0,0,1,3.171-2.988,3.67,3.67,0,0,1-1.65-1.009,3.875,3.875,0,0,1-.908-1.93A4.269,4.269,0,0,1,507.293,330.279Z" transform="translate(-190.362 -8.04)" fill="#013c87"/>
    <path id="Path_2" data-name="Path 2" d="M489.3,321.278h-.032a.349.349,0,0,1-.316-.378l0-.039c.142-1.607-.013-2.564-.5-3.1-.463-.507-1.312-.735-2.749-.737h-.041a.349.349,0,0,1,0-.7h.043c2.953,0,3.753-.777,4.037-3.9l0-.039h0a.344.344,0,0,1,.379-.316.349.349,0,0,1,.316.378h0c0,.012,0,.025,0,.037-.143,1.608.013,2.565.5,3.1.463.507,1.313.735,2.75.737h.041a.348.348,0,0,1,.348.348.357.357,0,0,1-.368.349h-.023c-2.952,0-3.753.777-4.037,3.9,0,.014,0,.028,0,.042A.349.349,0,0,1,489.3,321.278Zm-1.161-4.575a2.425,2.425,0,0,1,.828.585,2.519,2.519,0,0,1,.546.986,2.82,2.82,0,0,1,1.74-1.631,2.416,2.416,0,0,1-.828-.585,2.517,2.517,0,0,1-.546-.986A2.818,2.818,0,0,1,488.135,316.7Z" transform="translate(-175.26 0)" fill="#013c87"/>
    <path id="Path_3" data-name="Path 3" d="M470.409,344.955h-.032a.348.348,0,0,1-.316-.378l0-.031c.116-1.307-.007-2.082-.4-2.51a2.949,2.949,0,0,0-2.221-.588h-.034a.349.349,0,0,1-.348-.349.36.36,0,0,1,.365-.348h.02c2.415,0,3.033-.6,3.265-3.156,0-.011,0-.023,0-.035a.344.344,0,0,1,.379-.316.349.349,0,0,1,.316.378l0,.032c-.116,1.306.008,2.081.4,2.509a2.951,2.951,0,0,0,2.222.588h.034a.349.349,0,0,1,.348.348.362.362,0,0,1-.365.349h-.02c-2.415,0-3.033.6-3.265,3.156,0,.011,0,.023,0,.035A.349.349,0,0,1,470.409,344.955Zm-.811-3.831a2.018,2.018,0,0,1,.582.439,2.076,2.076,0,0,1,.418.7,2.373,2.373,0,0,1,1.275-1.193,2.017,2.017,0,0,1-.582-.439,2.079,2.079,0,0,1-.418-.7A2.373,2.373,0,0,1,469.6,341.124Z" transform="translate(-161.929 -17.623)" fill="#013c87"/>
    <path id="Path_4" data-name="Path 4" d="M530.939,365q-4.693-.729-9.4-1.323,1.554-1.955,3.166-3.9c.418-.52.187-1.039-.514-1.129q-2.851-.367-5.705-.686a2.371,2.371,0,0,0-1.978.839q-1.231,2.007-2.421,4.02-2.881-.3-5.766-.545a.646.646,0,0,0-.485.189,1.431,1.431,0,0,0-.212.536,7.033,7.033,0,0,1-1.3,2.361,2.729,2.729,0,0,0-.28.386,2.2,2.2,0,0,0-.172.421q-.1.323-.2.647a.9.9,0,0,0,.829,1.2q2.08.175,4.16.378-3.889,6.489-7.292,13.051c-.307.57-.089,1.041.471,1.089q1.8.156,3.6.335a1.9,1.9,0,0,0,1.612-.889q3.985-6.464,8.51-12.836,1.587.19,3.171.4-3.6,6.438-6.913,12.923c-.316.563-.1,1.076.458,1.145q1.847.23,3.692.486a1.806,1.806,0,0,0,1.622-.867q5.569-8.594,11.867-17.047A.7.7,0,0,0,530.939,365Z" transform="translate(-189.964 -34.227)" fill="#013c87"/>
    <path id="Path_5" data-name="Path 5" d="M489.434,359.968a5.142,5.142,0,0,0-5.282,3.747,3.371,3.371,0,0,0,3.142,4.252,5.363,5.363,0,0,0,5.256-3.7A3.256,3.256,0,0,0,489.434,359.968Zm-1.664,6.045a1.648,1.648,0,0,0-1.568-2.182,2.806,2.806,0,0,0,2.742-1.911,1.662,1.662,0,0,0,1.56,2.2A2.743,2.743,0,0,0,487.769,366.013Z" transform="translate(-174.345 -34.862)" fill="#013c87"/>
    <path id="Path_6" data-name="Path 6" d="M338.457,340.455a1.314,1.314,0,0,0,1.246.645q2.2-.164,4.4-.3-1.122,6.884-1.752,13.765a.85.85,0,0,0,.96.976q1.919-.139,3.84-.252a1.421,1.421,0,0,0,1.258-1.115q1.232-6.875,3.012-13.742,1.684-.066,3.368-.115-.8,6.784-1.311,13.569a.906.906,0,0,0,.969,1.034q1.977-.068,3.955-.109a1.335,1.335,0,0,0,1.255-1.091q1.826-9.173,4.391-18.319c.155-.59-.315-1.067-1.028-1.064q-4.991.021-9.98.185.708-2.132,1.473-4.262c.191-.567-.266-1.033-1.008-1.011q-3.015.091-6.029.233a1.82,1.82,0,0,0-1.629,1.123q-.368,2.133-.694,4.265-3.045.169-6.088.391a1.364,1.364,0,0,0-.311.059.344.344,0,0,0-.175.186.463.463,0,0,0,0,.292,4.981,4.981,0,0,1,.263,1.137,5.378,5.378,0,0,1-.407,2.756,1.025,1.025,0,0,0-.113.411A.772.772,0,0,0,338.457,340.455Z" transform="translate(-69.066 -12.029)" fill="#013c87"/>
    <path id="Path_7" data-name="Path 7" d="M309.863,351.15a3.968,3.968,0,0,0,3.74-4.411,4.527,4.527,0,0,0-5.02-3.657c-2.54.231-4.215,2.266-3.759,4.468A4.74,4.74,0,0,0,309.863,351.15Zm-.935-6.1a2.313,2.313,0,0,0,2.533,1.87,2.042,2.042,0,0,0-1.958,2.271,2.292,2.292,0,0,0-2.539-1.855A2.083,2.083,0,0,0,308.928,345.046Z" transform="translate(-44.174 -22.564)" fill="#013c87"/>
    <path id="Path_8" data-name="Path 8" d="M294.939,481.44h-1.911l.315-1.561h-.723l-.815,4h.723l.362-1.791H294.8l-.361,1.791h.717l.815-4h-.717Z" transform="translate(-33.532 -121.796)" fill="#013c87"/>
    <path id="Path_9" data-name="Path 9" d="M313.888,479.65a2.259,2.259,0,0,0-1.188.327,2.348,2.348,0,0,0-.855.855,2.238,2.238,0,0,0-.3,1.125,1.737,1.737,0,0,0,.557,1.326,2.04,2.04,0,0,0,1.435.517,2.31,2.31,0,0,0,1.211-.327,2.346,2.346,0,0,0,.843-.849,2.181,2.181,0,0,0,.3-1.1,1.764,1.764,0,0,0-.562-1.343A2.021,2.021,0,0,0,313.888,479.65Zm.821,3.019a1.514,1.514,0,0,1-1.131.482,1.341,1.341,0,0,1-.97-.35,1.2,1.2,0,0,1-.362-.9,1.551,1.551,0,0,1,.471-1.113,1.508,1.508,0,0,1,1.131-.488,1.321,1.321,0,0,1,.964.362,1.214,1.214,0,0,1,.367.918A1.511,1.511,0,0,1,314.709,482.669Z" transform="translate(-49.027 -121.636)" fill="#013c87"/>
    <path id="Path_10" data-name="Path 10" d="M335.239,482.336a1.028,1.028,0,0,1-1.028.958.729.729,0,0,1-.826-.758c0-.086.006-.161.011-.224l.505-2.434h-.723l-.442,2.187a2.552,2.552,0,0,0-.057.494,1.347,1.347,0,0,0,1.475,1.383,1.7,1.7,0,0,0,1.791-1.544l.511-2.519h-.717Z" transform="translate(-64.337 -121.796)" fill="#013c87"/>
    <path id="Path_11" data-name="Path 11" d="M351.948,480.293a.669.669,0,0,1,.666.413l.574-.344a1.22,1.22,0,0,0-1.2-.712,1.376,1.376,0,0,0-.958.356,1.1,1.1,0,0,0-.384.838c0,.51.344.809.918,1.068.5.224.712.361.712.654a.517.517,0,0,1-.212.408.807.807,0,0,1-.522.172.879.879,0,0,1-.935-.655l-.585.333a1.151,1.151,0,0,0,.5.7,1.711,1.711,0,0,0,.964.264,1.524,1.524,0,0,0,1.09-.384,1.2,1.2,0,0,0,.419-.918c0-.459-.287-.821-.867-1.079l-.339-.149-.224-.132a.4.4,0,0,1-.212-.362A.549.549,0,0,1,351.948,480.293Z" transform="translate(-76.89 -121.636)" fill="#013c87"/>
    <path id="Path_12" data-name="Path 12" d="M366.273,483.879h2.588l.138-.648h-1.871l.224-1.108h1.71l.126-.637h-1.71l.2-.958H369.5l.132-.649h-2.548Z" transform="translate(-88.672 -121.796)" fill="#013c87"/>
    <path id="Path_13" data-name="Path 13" d="M411.21,480.3a1.265,1.265,0,0,1,1.13.591l.551-.413a1.86,1.86,0,0,0-1.641-.826,2.256,2.256,0,0,0-1.188.327,2.352,2.352,0,0,0-.855.855,2.238,2.238,0,0,0-.3,1.125,1.739,1.739,0,0,0,.557,1.326,2.04,2.04,0,0,0,1.435.517,2.154,2.154,0,0,0,1.578-.654l-.448-.465a1.49,1.49,0,0,1-1.085.47,1.336,1.336,0,0,1-.964-.35,1.184,1.184,0,0,1-.367-.9,1.552,1.552,0,0,1,.47-1.113A1.509,1.509,0,0,1,411.21,480.3Z" transform="translate(-119.589 -121.636)" fill="#013c87"/>
    <path id="Path_14" data-name="Path 14" d="M428.67,479.879h-.723l-.815,4h2.307l.138-.648h-1.59Z" transform="translate(-132.733 -121.796)" fill="#013c87"/>
    <path id="Path_15" data-name="Path 15" d="M441.658,483.879h2.588l.138-.648h-1.871l.224-1.108h1.71l.126-.637h-1.71l.2-.958h1.831l.132-.649h-2.548Z" transform="translate(-143.3 -121.796)" fill="#013c87"/>
    <path id="Path_16" data-name="Path 16" d="M459.209,479.879l-2.485,4h.8l.5-.8H459.8l.166.8h.706l-.855-4Zm-.838,2.611.981-1.584.322,1.584Z" transform="translate(-154.247 -121.796)" fill="#013c87"/>
    <path id="Path_17" data-name="Path 17" d="M479.53,482.709l-1.567-2.83h-.608l-.815,4h.694L477.82,481l1.6,2.881h.563l.815-4H480.1Z" transform="translate(-168.627 -121.796)" fill="#013c87"/>
    <path id="Path_18" data-name="Path 18" d="M496.21,483.879h.723l.815-4h-.723Z" transform="translate(-182.722 -121.796)" fill="#013c87"/>
    <path id="Path_19" data-name="Path 19" d="M509.76,482.709l-1.567-2.83h-.608l-.815,4h.694l.585-2.881,1.6,2.881h.562l.815-4h-.694Z" transform="translate(-190.539 -121.796)" fill="#013c87"/>
    <path id="Path_20" data-name="Path 20" d="M529.07,480.3a1.309,1.309,0,0,1,1.079.5l.534-.407a1.824,1.824,0,0,0-1.549-.746,2.243,2.243,0,0,0-1.205.333,2.394,2.394,0,0,0-.844.867,2.276,2.276,0,0,0-.3,1.142,1.7,1.7,0,0,0,.546,1.28,2,2,0,0,0,1.423.516,2.36,2.36,0,0,0,1.538-.562l.356-1.8h-1.8l-.12.62h1.148l-.167.815a1.521,1.521,0,0,1-.9.275,1.321,1.321,0,0,1-.953-.344,1.2,1.2,0,0,1-.361-.907,1.547,1.547,0,0,1,.465-1.108A1.5,1.5,0,0,1,529.07,480.3Z" transform="translate(-205.022 -121.636)" fill="#013c87"/>
    <path id="Path_21" data-name="Path 21" d="M328.2,388.292H299.481a3.567,3.567,0,0,0,1.2-2.706,3.642,3.642,0,0,0-.69-2.151q1.526.017,3.053.055c1.645.041,3.29.1,4.937.174a1.263,1.263,0,0,0,1.151-1.079q.391-1.765.791-3.53a.878.878,0,0,0-.693-1.177q-3.091-.209-6.185-.333-1.349-.055-2.7-.1.126-1.5.256-3.009.19-2.238.381-4.476,4.681.14,9.358.456a1.31,1.31,0,0,0,1.262-1.07v0h0l.145-.617q.1-.412.195-.824c0-.006,0-.011,0-.017q.156-.664.314-1.327a.745.745,0,0,0,.019-.428.4.4,0,0,0-.3-.191,4.222,4.222,0,0,1-2.568-1.081,1.248,1.248,0,0,0-.369-.321,1.677,1.677,0,0,0-.534-.1q-3.254-.186-6.511-.292.295-2.663.6-5.325a.975.975,0,0,0-.954-1.154q-3.271-.1-6.544-.115a1.229,1.229,0,0,0-1.206,1.119q.322,7.885.553,15.77.092,3.131.172,6.262a2.878,2.878,0,0,0-1.126-.231,2.957,2.957,0,0,0-2.014.813,5.328,5.328,0,0,0-4.021-1.881A5.662,5.662,0,0,0,282,384.526a2.653,2.653,0,0,0-1.233.965,3.334,3.334,0,0,0-.415,2.8h-4.165c-.022-.03-.043-.06-.065-.089a5.1,5.1,0,0,1-.82-4.123,1.934,1.934,0,0,0-.805-1.982v-1.6a.633.633,0,0,0-.271-.527h.584c.966,2.824,2.163,3.381,2.622,3.594l.038.018a.482.482,0,0,0,.206.048.463.463,0,0,0,.37-.192.636.636,0,0,0,.025-.706,12.016,12.016,0,0,1-1.559-4.713,3.007,3.007,0,0,1,.382-.013l.009,0,.009,0h1.749a.359.359,0,0,0,.341-.375v-2.293a.359.359,0,0,0-.341-.375h-1.745c-.106,0-1.736-.022-3.125-.023-.791,0-1.5,0-1.813.024a5.452,5.452,0,0,0-3.157,1.281q-.165-1.006-.329-2.011c-.013-.081-.027-.163-.04-.244a1.144,1.144,0,0,0-1.175-1.013q-4.673.5-9.334,1.178-1.136-3.671-2.262-7.344,4.891-.709,9.8-1.234a1.035,1.035,0,0,0,.868-1.256v0h0q-.048-.311-.1-.622-.063-.415-.125-.83c0-.006,0-.011,0-.017q-.121-.8-.242-1.6a.413.413,0,0,0-.1-.253.4.4,0,0,0-.269-.044l-.116.014a5.542,5.542,0,0,1-3.324-.739.831.831,0,0,0-.276-.123,1.121,1.121,0,0,0-.334,0q-3.5.409-7,.906-.735-2.625-1.46-5.25a1.29,1.29,0,0,0-1.431-.943q-3.4.5-6.8,1.071a.993.993,0,0,0-.816,1.3q5.068,11.312,9.939,22.661a1.287,1.287,0,0,0,1.3.969q5.293-.977,10.629-1.7c.7-.1,1.4-.19,2.1-.28a3.614,3.614,0,0,0,.8.084c1.045.039,1.941.147,2.249.961H270.8a.6.6,0,0,0-.564.62v1.547a1.925,1.925,0,0,0-.889,2.034,5.1,5.1,0,0,1-.82,4.123c-.022.029-.043.059-.065.089H255.525a.377.377,0,0,0,0,.75h12.41v0h.858v0c.087-.121.173-.242.263-.361s.184-.259.265-.389a6.078,6.078,0,0,0,.7-4.332,1.18,1.18,0,0,1,.335-1.1.322.322,0,0,0,.04.037,3.772,3.772,0,0,0,2.02.368,5.372,5.372,0,0,0,1.372-.165,2.7,2.7,0,0,0,.511-.181c.011-.006.02-.015.03-.022a1.191,1.191,0,0,1,.3,1.065,6.08,6.08,0,0,0,.7,4.333c.081.13.169.259.266.388s.177.241.264.361v0h.858v0h6.539v4.917a1.617,1.617,0,1,0,3.218,0v-3.63a1.29,1.29,0,0,1,.811-1.227,1.077,1.077,0,0,1,.261-.06H328.2a.377.377,0,0,0,0-.75Zm-51.287-12.579h1.408v1.543h-1.408Zm.268,6.855a6.028,6.028,0,0,1-1.81-3.1.345.345,0,0,0-.321-.25h-.764a2.767,2.767,0,0,1,1.552-1.074A13.018,13.018,0,0,0,277.18,382.568Zm-3.365-.512v.256l-.024.008-.048.015a4.577,4.577,0,0,1-1.324.176,4.723,4.723,0,0,1-1.5-.187v-1.7h2.893Zm-.024-3.349c-.029.04-.059.079-.087.121a3.714,3.714,0,0,0-.462,1c0,.016-.008.033-.013.049h-1.547c-.342-1.484-1.72-1.654-2.7-1.7l-.245-.011c-.172-.006-.386-.014-.534-.034a4.024,4.024,0,0,1,.755-1.041,4.774,4.774,0,0,1,3.058-1.379c.294-.019.994-.024,1.774-.023,1.036,0,2.215.013,2.78.019v1.548c-.1.005-.2.017-.312.032a4.011,4.011,0,0,0-1.163.345,3.6,3.6,0,0,0-.616.375,3.406,3.406,0,0,0-.27.226A3.311,3.311,0,0,0,273.792,378.707Zm13.666,1.443a4.679,4.679,0,0,1,3.55,1.674,3.558,3.558,0,0,0-.5,1.061,4.12,4.12,0,0,0-2.34-.743,4.4,4.4,0,0,0-3.934,2.681,2.426,2.426,0,0,0-1.393-.449c-.043,0-.084,0-.127.007A4.936,4.936,0,0,1,287.458,380.15Zm10.093,8.129a.317.317,0,0,0-.045,0,.31.31,0,0,0-.045,0h-9.8a1.689,1.689,0,0,0-.2.012,1.823,1.823,0,0,0-1.248.75c-.014.019-.027.04-.041.06a2.171,2.171,0,0,0-.375,1.227v3.63a.931.931,0,1,1-1.855,0v-5.3a.36.36,0,0,0-.287-.363.282.282,0,0,0-.054-.012H281.11a1.764,1.764,0,0,1-.215-1.02,2.169,2.169,0,0,1,1.053-1.9,1.84,1.84,0,0,1,.344-.152,1.77,1.77,0,0,1,.345-.076,1.788,1.788,0,0,1,.2-.011,1.842,1.842,0,0,1,1.3.563.344.344,0,0,0,.059.046,2.027,2.027,0,0,1,.157.181.329.329,0,0,0,.263.137.322.322,0,0,0,.216-.085.4.4,0,0,0,.047-.528c-.033-.044-.072-.082-.107-.124a3.737,3.737,0,0,1,3.389-2.422,3.522,3.522,0,0,1,2.334.909.287.287,0,0,0,.018.024,3.876,3.876,0,0,1,.333.338.32.32,0,0,0,.482.011.4.4,0,0,0,.01-.53c-.078-.089-.165-.17-.25-.253a2.825,2.825,0,0,1,.363-.972,2.7,2.7,0,0,1,.218-.306,2.558,2.558,0,0,1,.244-.26,2.312,2.312,0,0,1,1.573-.635,2.266,2.266,0,0,1,1.148.316,2.6,2.6,0,0,1,1.082,1.271,3.3,3.3,0,0,0-.546.547c-.068.086-.133.175-.192.268a.4.4,0,0,0,.083.522.317.317,0,0,0,.2.068.332.332,0,0,0,.279-.159,2.621,2.621,0,0,1,.563-.627,2.438,2.438,0,0,1,.2-.145c.008-.005.013-.014.02-.02a2.247,2.247,0,0,1,2.681.164,2.782,2.782,0,0,1,1,2.163A2.583,2.583,0,0,1,297.551,388.279Z" transform="translate(0 -34.234)" fill="#013c87"/>
    <path id="Path_22" data-name="Path 22" d="M381.079,425.154a1.937,1.937,0,1,0,1.937-1.937A1.939,1.939,0,0,0,381.079,425.154Zm3.124,0a1.187,1.187,0,1,1-1.187-1.187A1.188,1.188,0,0,1,384.2,425.154Z" transform="translate(-99.418 -80.659)" fill="#013c87"/>
  </g>
</svg>
