<?xml version="1.0" encoding="utf-8"?>
<!-- Generator: Adobe Illustrator 24.2.0, SVG Export Plug-In . SVG Version: 6.00 Build 0)  -->
<svg version="1.1" id="レイヤー_1" xmlns="http://www.w3.org/2000/svg" xmlns:xlink="http://www.w3.org/1999/xlink" x="0px"
	 y="0px" viewBox="0 0 500 72.74" style="enable-background:new 0 0 500 72.74;" xml:space="preserve">
<style type="text/css">
	.st0{fill:#000000;}
</style>
<g id="テキスト_1_">
	<g>
		<g>
			<path class="st0" d="M0,3.23h11.31v53.88H0V3.23z"/>
			<path class="st0" d="M19.4,30.17c0-16.7,12.39-28.02,28.02-28.02c12.39,0,19.4,6.47,23.17,12.93l-9.7,4.85
				c-2.16-4.31-7-8.08-12.93-8.08c-9.16,0-16.7,7.54-16.7,17.78s7,17.78,16.7,17.78c5.93,0,10.78-3.23,12.93-8.08l9.7,4.85
				c-3.77,6.47-10.78,13.47-23.17,13.47C31.79,58.19,19.4,46.88,19.4,30.17z"/>
			<path class="st0" d="M98.06,3.23h21.01c16.7,0,28.56,10.78,28.56,26.94s-11.85,26.94-28.56,26.94H98.06L98.06,3.23z
				 M119.61,46.88c10.78,0,16.7-7.54,16.7-16.7c0-9.7-5.93-16.7-16.7-16.7h-9.7v33.94h9.7V46.88z"/>
			<path class="st0" d="M174.03,17.24c11.85,0,19.4,8.62,19.4,21.55v2.16h-29.09c0.54,4.85,4.85,9.16,11.31,9.16
				c3.77,0,8.08-1.62,10.24-3.77l4.31,6.47c-3.77,3.77-10.24,5.39-16.16,5.39c-11.85,0-21.01-8.08-21.01-20.47
				C153.56,26.4,161.64,17.24,174.03,17.24z M164.33,33.94h19.4c0-3.77-2.69-8.62-9.7-8.62C167.56,25.32,164.87,30.17,164.33,33.94z
				"/>
			<path class="st0" d="M202.05,44.72c2.69,2.69,8.62,5.39,13.47,5.39c4.31,0,6.47-1.62,6.47-3.77c0-2.69-3.23-3.77-8.08-4.85
				c-6.47-1.08-15.09-2.69-15.09-12.39c0-6.47,5.93-12.39,16.16-12.39c6.47,0,11.85,2.16,15.62,5.39l-4.31,7
				c-2.16-2.16-7-4.31-11.31-4.31c-3.77,0-5.93,1.62-5.93,3.77c0,2.69,3.23,3.23,7.54,4.31c6.47,1.08,15.63,3.23,15.63,12.93
				c0,7-5.93,12.39-16.7,12.39c-7,0-13.47-2.16-17.24-5.93L202.05,44.72z"/>
			<path class="st0" d="M238.15,5.93c0-3.23,2.69-5.93,5.93-5.93c3.23,0,5.93,2.69,5.93,5.93s-2.69,5.93-5.93,5.93
				C240.84,12.39,238.15,9.7,238.15,5.93z M239.22,17.78h10.24v38.79h-10.24V17.78z"/>
			<path class="st0" d="M263.47,59.81c3.23,3.23,7.54,4.85,12.39,4.85s10.78-2.16,10.78-9.7v-4.31c-3.23,3.77-7,5.93-11.85,5.93
				c-9.7,0-17.24-7-17.24-19.94s7.54-19.94,17.24-19.94c4.85,0,8.62,2.16,11.85,5.93v-4.85h10.24v36.64
				c0,15.09-11.31,18.32-21.01,18.32c-6.47,0-11.85-1.62-16.7-5.93L263.47,59.81z M286.64,30.71c-1.62-2.69-5.39-4.31-8.62-4.31
				c-5.93,0-9.7,4.31-9.7,10.78s4.31,10.78,9.7,10.78c3.23,0,7-2.16,8.62-4.31V30.71z"/>
			<path class="st0" d="M333.51,33.41c0-5.39-2.69-7.54-7-7.54c-4.31,0-7,2.16-8.62,4.85v26.4h-10.24V17.78h10.24v4.85
				c2.69-3.23,7-5.93,13.47-5.93c8.62,0,12.93,4.85,12.93,12.39v27.48h-10.24V33.41H333.51z"/>
			<path class="st0" d="M375,3.23h11.31v43.64h22.63v10.24H375C375,57.11,375,3.23,375,3.23z"/>
			<path class="st0" d="M440.19,52.8c-2.69,3.23-7.54,4.85-12.39,4.85c-6.47,0-13.47-4.31-13.47-12.93
				c0-9.16,7.54-12.39,13.47-12.39c5.39,0,9.7,1.62,12.39,4.85v-5.39c0-3.77-3.23-6.47-8.62-6.47c-4.31,0-8.08,1.62-11.31,4.85
				l-3.77-7c4.85-4.31,10.78-5.93,17.24-5.93c8.62,0,17.24,3.77,17.24,14.55v25.32h-10.24V52.8H440.19z M440.19,42.56
				c-1.62-2.16-4.85-3.23-8.08-3.23c-4.31,0-7.54,2.16-7.54,5.93s3.23,5.93,7.54,5.93c3.23,0,6.47-1.08,8.08-3.23V42.56z"/>
			<path class="st0" d="M460.67,3.23h10.24v19.94c3.23-3.77,7.54-5.93,11.85-5.93c9.7,0,17.24,7.54,17.24,20.47
				s-7.54,20.47-17.24,20.47c-4.85,0-9.16-2.16-11.85-5.93v4.85h-10.24V3.23z M479.53,49.03c5.93,0,9.7-4.31,9.7-11.31
				s-3.77-11.31-9.7-11.31c-3.23,0-7,2.16-8.62,4.31v14.01C472.52,46.88,476.29,49.03,479.53,49.03z"/>
		</g>
	</g>
</g>
</svg>
